<?xml version="1.0" encoding="utf-8"?>
<!-- Generator: Adobe Illustrator 16.0.0, SVG Export Plug-In . SVG Version: 6.00 Build 0)  -->
<!DOCTYPE svg PUBLIC "-//W3C//DTD SVG 1.1//EN" "http://www.w3.org/Graphics/SVG/1.1/DTD/svg11.dtd">
<svg version="1.1" id="Layer_1" xmlns="http://www.w3.org/2000/svg" xmlns:xlink="http://www.w3.org/1999/xlink" x="0px" y="0px"
	 width="447px" height="100px" viewBox="0 0 447 100" enable-background="new 0 0 447 100" xml:space="preserve">
<g>
	<g>
		<path fill="#3B5A9B" d="M38.266,42.089c-2.308,1.933-3.713,5.304-2.808,8.563c0.603,2.17,2.945,4.378,5.95,4.077
			c1.158-0.114,2.017-0.604,2.715-1.174c1.68-1.367,2.585-3.267,2.632-5.413c0.038-1.59,0.239-5.345-2.63-6.643
			C43.268,41.113,40.104,40.549,38.266,42.089z"/>
	</g>
	<g>
		<path fill="#3B5A9B" d="M85.435,43.407c-1.617,2.396-0.776,5.357,0.174,7.373c0.5,1.063,1.16,2.125,2.447,2.788
			c1.286,0.66,3.138,1.471,4.747,0.727c1.732-0.802,2.551-2.938,2.707-4.219c0.305-2.544-0.491-5.001-2.272-7.009
			c-0.551-0.624-1.219-1.215-2.177-1.565c-1.477-0.541-3.306-0.347-4.567,0.732C86.06,42.602,85.711,42.997,85.435,43.407z"/>
	</g>
	<g>
		<g>
			<path fill="#3B5A9B" d="M118.508,60.162c-0.674-6.504-2.241-12.727-4.672-18.798c-1.598-3.991-5.337-7.82-5.304-11.992
				c0.034-4.279-0.4-8.59-0.795-12.845c-0.368-3.965-0.304-9.259-2.351-12.771c-2.992-5.134-12.854,9.761-14.302,11.654
				c-1.716,2.246-0.99,1.64-3.644,0.753c-3.062-1.023-6.242-1.667-9.418-2.21c-6.535-1.119-13.229-1.172-19.82-0.634
				c-2.687,0.219-5.355,0.651-8.003,1.146c-3.09,0.578-6.074,2.608-8.189-0.453c-2.036-2.947-5.319-10.175-9.541-10.749
				c-3.015-0.41-4.114,1.78-4.706,4.489c-1.094,5.01-1.864,10.101-2.612,15.171c-0.351,2.382-0.13,5.685-1.438,7.561
				c-3.365,4.833-5.778,10.323-7.671,15.876c-3.226,9.459-4.652,21.06,0.471,30.106c4.887,8.63,16.275,13.339,25.217,16.196
				c10.294,3.29,21.83,3.406,32.518,2.767C94.622,94.211,119.977,84.686,118.508,60.162c-0.058-0.961-1.558-0.967-1.5,0
				C118.3,81.741,97.747,91.102,79.523,93.44c-16.803,2.157-34.645,0.683-49.721-7.423c-9.039-4.859-14.587-11.736-15.097-22.188
				c-0.49-10.044,3.285-20.417,8.103-29.053c1.078-1.933,2.929-3.623,3.079-5.846c0.233-3.454,0.891-6.909,1.433-10.324
				c0.604-3.805,1.267-7.604,2.089-11.369c2.109-2.604,3.987-2.754,5.634-0.451c1.228,1.136,2.161,2.796,3.077,4.195
				c1.426,2.179,2.947,4.299,4.428,6.441c0.188,0.272,0.509,0.45,0.847,0.345c15.006-4.649,31.833-4.536,46.618,0.882
				c0.293,0.108,0.711-0.063,0.847-0.345c2.078-4.331,6.548-8.434,9.733-11.982c4.39-4.891,5.042,4.724,5.253,6.48
				c0.394,3.281,0.664,6.577,0.896,9.873c0.228,3.242-0.691,7.645,1.115,10.372c5.291,7.986,8.172,17.653,9.153,27.115
				C117.106,61.114,118.607,61.124,118.508,60.162z"/>
		</g>
	</g>
	<g>
		<path fill="#3B5A9B" d="M60.639,57.604c-0.303-0.388-0.17-0.732,0.311-0.833c3.313-0.682,10.293,0.027,10.563,0.741
			c0.271,0.714-0.399,0.792-0.995,1.269c-0.897,0.719-1.822,1.402-2.773,2.049c-0.484,0.331-1.012,0.663-1.597,0.66
			c-0.384,0-0.75-0.146-1.099-0.306C63.477,60.469,60.639,57.604,60.639,57.604z"/>
	</g>
	<g>
		<g>
			<path fill="#3B5A9B" d="M97.188,62.508c2.89-0.492,5.78-0.983,8.67-1.476c0.952-0.162,0.547-1.608-0.398-1.447
				c-2.89,0.492-5.78,0.983-8.67,1.476C95.838,61.223,96.243,62.669,97.188,62.508L97.188,62.508z"/>
		</g>
	</g>
	<g>
		<g>
			<path fill="#3B5A9B" d="M96.778,67.846c2.51,0.382,4.964,0.97,7.375,1.767c0.921,0.304,1.313-1.145,0.398-1.447
				c-2.411-0.796-4.865-1.385-7.375-1.767C96.231,66.255,95.824,67.7,96.778,67.846L96.778,67.846z"/>
		</g>
	</g>
	<g>
		<g>
			<path fill="#3B5A9B" d="M96.554,73.577c1.486,1.021,2.933,2.094,4.335,3.227c0.745,0.602,1.813-0.453,1.061-1.061
				c-1.502-1.213-3.047-2.368-4.639-3.461C96.511,71.733,95.762,73.034,96.554,73.577L96.554,73.577z"/>
		</g>
	</g>
	<g>
		<g>
			<path fill="#3B5A9B" d="M24.295,61.032c2.767,0.795,5.56,1.478,8.382,2.046c0.944,0.189,1.347-1.256,0.398-1.447
				c-2.822-0.567-5.615-1.25-8.382-2.046C23.762,59.317,23.367,60.765,24.295,61.032L24.295,61.032z"/>
		</g>
	</g>
	<g>
		<g>
			<path fill="#3B5A9B" d="M24.976,70.172c2.61-0.775,5.22-1.552,7.83-2.326c0.925-0.275,0.531-1.723-0.398-1.447
				c-2.61,0.775-5.22,1.552-7.83,2.326C23.652,69,24.046,70.447,24.976,70.172L24.976,70.172z"/>
		</g>
	</g>
	<g>
		<g>
			<path fill="#3B5A9B" d="M32.575,77.702c1.57-1.371,3.256-2.568,5.06-3.611c0.837-0.483,0.082-1.78-0.757-1.295
				c-1.913,1.105-3.699,2.393-5.363,3.846C30.784,77.279,31.85,78.335,32.575,77.702L32.575,77.702z"/>
		</g>
	</g>
	<g>
		<g>
			<path fill="#3B5A9B" d="M66.561,14.037c1.379,5.602,2.997,12.106,1.941,17.861c-0.173,0.945,1.272,1.349,1.446,0.398
				c1.104-6.015-0.499-12.803-1.941-18.658C67.776,12.7,66.329,13.098,66.561,14.037L66.561,14.037z"/>
		</g>
	</g>
	<g>
		<g>
			<path fill="#3B5A9B" d="M58.405,23.182c6.304-2.931,13.86-2.486,20.159,0.076c0.896,0.365,1.282-1.087,0.398-1.446
				c-6.697-2.724-14.646-3.024-21.314,0.076C56.771,22.294,57.534,23.587,58.405,23.182L58.405,23.182z"/>
		</g>
	</g>
	<g>
		<g>
			<path fill="#3B5A9B" d="M64.168,27.805c2.646-1.229,5.827-0.995,8.46,0.076c0.896,0.365,1.282-1.087,0.398-1.446
				c-3.029-1.232-6.609-1.322-9.615,0.076C62.535,26.917,63.297,28.21,64.168,27.805L64.168,27.805z"/>
		</g>
	</g>
</g>
<g>
	<path fill="#3B5A9B" d="M159.992,29.447c1.028,1.192,1.542,2.642,1.542,4.348c0,1.969-0.832,3.446-2.494,4.43
		c-0.722,0.394-2.473,0.974-5.25,1.739c-3.391,0.941-5.557,2.111-6.497,3.511c-1.4,2.056-2.1,4.9-2.1,8.531
		c0,3.392,0.853,6.279,2.56,8.663c1.925,1.247,3.784,1.871,5.578,1.871c1.969,0,4.124-0.733,6.465-2.199
		c0.787-0.415,1.585-0.623,2.395-0.623c1.356,0,2.423,0.503,3.2,1.509c0.776,1.007,1.121,2.188,1.034,3.544
		c-0.219,2.735-0.81,4.754-1.772,6.055c-0.963,1.302-2.92,2.576-5.874,3.823c-2.013,0.853-4.025,1.279-6.038,1.279
		c-1.532,0-3.73-0.36-6.596-1.083c-3.938-1.53-6.071-2.384-6.399-2.56c-1.334-0.766-2.812-2.133-4.43-4.102
		c-1.422-1.75-2.538-4.594-3.347-8.531c-0.635-3.216-0.952-6.322-0.952-9.32c0-2.734,0.273-4.889,0.82-6.464
		c2.537-5.381,5.961-9.593,10.271-12.634c2.56-1.837,5.129-3.007,7.711-3.511c0.678-0.131,2.701-0.306,6.07-0.525
		C157.596,27.506,158.963,28.255,159.992,29.447z"/>
	<path fill="#3B5A9B" d="M175.381,31.17c1.247-2.646,4.714-3.971,10.402-3.971c2.166,0,4.167,0.295,6.005,0.886
		c2.45,0.7,4.036,1.794,4.758,3.281c1.575,3.084,3.216,9.516,4.922,19.295c1.641,9.232,2.461,15.97,2.461,20.213
		c0,1.926-0.197,3.03-0.591,3.314c-0.307,0.569-1.225,1.062-2.756,1.477c-1.247,0.307-2.319,0.46-3.216,0.46
		c-2.166,0-3.982-0.646-5.447-1.937c-1.4-2.253-2.253-4.451-2.56-6.596c-0.175-1.575-0.471-3.904-0.886-6.989
		c-0.307-1.313-1.04-1.969-2.199-1.969c-0.503,0-1.045,0.17-1.625,0.509s-0.848,0.76-0.804,1.263
		c-0.131,1.882-0.383,4.682-0.755,8.401c-0.262,2.734-0.908,4.528-1.936,5.381c-1.488,1.247-3.347,1.871-5.578,1.871
		c-2.954,0-5.108-0.875-6.465-2.626c-0.438-0.394-0.656-1.914-0.656-4.561c0-5.119,0.624-11.376,1.871-18.77
		C171.815,41.463,173.5,35.152,175.381,31.17z M181.419,44.886c0,1.072,0.404,1.953,1.214,2.642c0.809,0.689,1.75,1.034,2.822,1.034
		c1.072,0,2.023-0.344,2.855-1.034c0.831-0.689,1.247-1.569,1.247-2.642c0-1.093-0.416-1.985-1.247-2.674
		c-0.832-0.689-1.783-1.034-2.855-1.034c-1.072,0-2.013,0.345-2.822,1.034C181.824,42.901,181.419,43.793,181.419,44.886z"/>
	<path fill="#3B5A9B" d="M203.832,28.348c3.719-0.678,8.871-1.018,15.456-1.018c6.037,0,11.43,0.339,16.178,1.018
		c1.574,0.722,2.363,2.942,2.363,6.661c0,3.347-0.656,5.36-1.969,6.038c-0.832,1.072-1.926,1.608-3.281,1.608
		c-0.68,0-1.664-0.202-2.955-0.607c-1.291-0.404-2.23-0.607-2.82-0.607c-0.68,0-1.172,0.251-1.479,0.755
		c-0.174,0.262-0.262,0.864-0.262,1.805c0,2.866,0.367,7.165,1.1,12.896s1.1,10.03,1.1,12.896c0,2.428-0.264,3.839-0.787,4.232
		c-1.752,1.357-4.245,2.035-7.482,2.035c-3.085,0-5.032-0.875-5.841-2.626c-0.481-0.48-0.722-1.805-0.722-3.97
		c0-2.822,0.437-7.044,1.313-12.667c0.875-5.622,1.313-9.844,1.313-12.666c0-0.897-0.099-1.411-0.295-1.542
		c-0.307-0.678-0.864-1.017-1.673-1.017c-0.613,0-1.641,0.191-3.084,0.574s-2.538,0.574-3.282,0.574
		c-1.094,0-2.057-0.218-2.888-0.656c-1.488-0.766-2.231-3.03-2.231-6.792C201.6,31.553,202.344,29.245,203.832,28.348z"/>
	<path fill="#3B5A9B" d="M276.385,32.253c0.459,6.388,0.798,10.774,1.018,13.159c0.809,7.087,1.75,10.698,2.821,10.829
		c0.897,0.088,1.367-2.757,1.411-8.532c0.044-8.072,0.241-13.366,0.591-15.882c-0.263-1.553,0.547-2.712,2.429-3.478
		c1.334-0.591,2.898-0.886,4.692-0.886c1.837,0,3.521,0.295,5.053,0.886c2.145,0.81,3.15,1.991,3.02,3.544
		c-0.679,8.969-1.598,17.063-2.757,24.283c-1.706,10.348-3.609,16.232-5.709,17.654c-1.882,1.575-4.573,2.362-8.073,2.362
		c-3.806,0-6.606-0.645-8.4-1.937c-2.734-2.034-5.37-7.886-7.908-17.556c-2.472-9.406-3.62-17.358-3.445-23.856
		c0.044-1.662,1.148-3.007,3.314-4.036c1.728-0.809,3.532-1.214,5.414-1.214C273.989,27.593,276.166,29.147,276.385,32.253z"/>
	<path fill="#3B5A9B" d="M302.964,30.153c0.81-1.465,2.778-2.199,5.907-2.199c3.412,0,5.589,0.82,6.529,2.461
		c0.723,1.313,1.083,8.86,1.083,22.643c0,12.207-0.295,19.251-0.886,21.132c-0.635,1.466-2.812,2.199-6.53,2.199
		c-3.391,0-5.381-0.667-5.972-2.002c-0.984-2.253-1.477-10.227-1.477-23.922C301.619,38.126,302.067,31.356,302.964,30.153z"/>
	<path fill="#3B5A9B" d="M322.915,34.32c0.503-2.144,2.144-3.872,4.923-5.185c2.449-1.159,5.381-1.739,8.794-1.739
		c4.966,0,9.286,1.17,12.962,3.511c4.09,2.582,6.245,6.137,6.464,10.665c0.044,0.766,0.132,1.936,0.263,3.511
		c0.044,0.481-0.088,1.313-0.394,2.494l-0.263,1.05c-0.459,1.794-1.4,3.183-2.822,4.167c-0.503,0.328-1.455,0.733-2.854,1.214
		c-0.832,0.307-1.247,0.799-1.247,1.477c0,0.219,0.021,0.492,0.065,0.82c0.35,0.897,1.247,2.221,2.691,3.971
		c1.597,1.926,2.625,3.336,3.084,4.233c1.072,2.057,1.63,4.43,1.674,7.12c0.044,1.51-0.722,2.67-2.297,3.479
		c-1.203,0.635-2.637,0.952-4.299,0.952c-1.794,0-3.249-0.339-4.364-1.018c-0.897-0.678-1.587-2.177-2.067-4.496
		c-0.591-2.821-1.104-4.637-1.542-5.446c-0.941-1.75-2.429-2.604-4.463-2.56c-1.203-0.088-1.805,0.471-1.805,1.673
		c0,0.854,0.234,2.122,0.705,3.807s0.706,2.953,0.706,3.807s-0.197,1.521-0.591,2.002c-1.4,1.75-3.49,2.625-6.268,2.625
		c-1.247,0-2.494-0.197-3.741-0.591c-1.619-0.503-2.658-1.182-3.117-2.034c-1.203-4.069-1.805-10.764-1.805-20.083
		C321.308,45.456,321.843,38.98,322.915,34.32z M334.203,43.246c0,1.181,0.317,2.188,0.952,3.019
		c0.634,0.832,1.531,1.247,2.69,1.247c3.391,0,4.999-1.422,4.824-4.266c-0.132-2.144-1.696-3.216-4.692-3.216
		C335.461,40.03,334.203,41.102,334.203,43.246z"/>
	<path fill="#3B5A9B" d="M365.805,31.17c1.247-2.646,4.714-3.971,10.402-3.971c2.165,0,4.167,0.295,6.005,0.886
		c2.449,0.7,4.036,1.794,4.758,3.281c1.575,3.084,3.216,9.516,4.922,19.295c1.641,9.232,2.461,15.97,2.461,20.213
		c0,1.926-0.196,3.03-0.59,3.314c-0.307,0.569-1.226,1.062-2.757,1.477c-1.247,0.307-2.319,0.46-3.216,0.46
		c-2.166,0-3.981-0.646-5.447-1.937c-1.4-2.253-2.253-4.451-2.56-6.596c-0.175-1.575-0.471-3.904-0.886-6.989
		c-0.307-1.313-1.039-1.969-2.198-1.969c-0.504,0-1.045,0.17-1.625,0.509s-0.848,0.76-0.804,1.263
		c-0.131,1.882-0.383,4.682-0.755,8.401c-0.263,2.734-0.908,4.528-1.936,5.381c-1.488,1.247-3.348,1.871-5.579,1.871
		c-2.953,0-5.108-0.875-6.464-2.626c-0.438-0.394-0.656-1.914-0.656-4.561c0-5.119,0.623-11.376,1.87-18.77
		C362.238,41.463,363.923,35.152,365.805,31.17z M371.842,44.886c0,1.072,0.405,1.953,1.215,2.642
		c0.809,0.689,1.75,1.034,2.821,1.034c1.072,0,2.023-0.344,2.855-1.034c0.831-0.689,1.247-1.569,1.247-2.642
		c0-1.093-0.416-1.985-1.247-2.674c-0.832-0.689-1.783-1.034-2.855-1.034c-1.071,0-2.013,0.345-2.821,1.034
		C372.247,42.901,371.842,43.793,371.842,44.886z"/>
	<path fill="#3B5A9B" d="M399.603,31.235c0.766-2.253,3.073-3.38,6.924-3.38c3.763,0,6.093,0.996,6.989,2.986
		c0.35,1.291,0.525,2.899,0.525,4.824c0,2.188-0.377,5.437-1.132,9.746s-1.133,7.537-1.133,9.68c0,0.984,0.109,1.75,0.328,2.297
		c0.723,3.085,3.391,4.627,8.007,4.627c1.159,0,2.965-0.153,5.415-0.46c2.121-0.283,3.784-0.47,4.987-0.558
		c2.318-0.175,3.479,1.729,3.479,5.71c0,1.313-0.197,2.68-0.591,4.102c-0.481,1.838-1.17,2.91-2.067,3.216
		c-3.588,1.182-7.689,1.772-12.306,1.772c-8.159,0-14.077-1.575-17.752-4.726c-1.969-2.188-2.953-8.028-2.953-17.522
		C398.323,47.314,398.749,39.877,399.603,31.235z"/>
</g>
</svg>
